<svg width="18" height="25" viewBox="0 0 18 25" fill="none" xmlns="http://www.w3.org/2000/svg">
<path d="M16.875 0.5H1.125C0.46875 0.5 0 1.01562 0 1.625V3.875C0 4.53125 0.46875 5 1.125 5H16.875C17.4844 5 18 4.53125 18 3.875V1.625C18 1.01562 17.4844 0.5 16.875 0.5ZM1.5 23C1.5 23.8438 2.15625 24.5 3 24.5H15C15.7969 24.5 16.5 23.8438 16.5 23V6.5H1.5V23ZM4.5 14.375C4.5 14.1875 4.64062 14 4.875 14H7.5V11.375C7.5 11.1875 7.64062 11 7.875 11H10.125C10.3125 11 10.5 11.1875 10.5 11.375V14H13.125C13.3125 14 13.5 14.1875 13.5 14.375V16.625C13.5 16.8594 13.3125 17 13.125 17H10.5V19.625C10.5 19.8594 10.3125 20 10.125 20H7.875C7.64062 20 7.5 19.8594 7.5 19.625V17H4.875C4.64062 17 4.5 16.8594 4.5 16.625V14.375Z" fill="#088573"/>
</svg>
