<svg width="24" height="24" viewBox="0 0 24 24" fill="none" xmlns="http://www.w3.org/2000/svg">
<path fill-rule="evenodd" clip-rule="evenodd" d="M12 20C12 20 12 6 12 6C12 6 9.99998 4 7.99998 4C5.99998 4 2.99998 6 2.99998 6C2.99998 6 2.99998 20 2.99998 20C2.99998 20 5.99997 18 7.99998 18C9.99999 18 12 20 12 20Z" stroke="#232323" stroke-linecap="round" stroke-linejoin="round"/>
<path fill-rule="evenodd" clip-rule="evenodd" d="M12 20C12 20 12 6 12 6C12 6 14 4 16 4C18 4 21 6 21 6C21 6 21 20 21 20C21 20 18 18 16 18C14 18 12 20 12 20Z" stroke="#232323" stroke-linecap="round" stroke-linejoin="round"/>
</svg>
