<svg width="14" height="15" viewBox="0 0 14 15" fill="none" xmlns="http://www.w3.org/2000/svg">
<path d="M9.01953 7.75L13.6602 3.15234C13.918 2.89453 13.918 2.42188 13.6602 2.16406L12.5859 1.08984C12.3281 0.832031 11.8555 0.832031 11.5977 1.08984L7 5.73047L2.35938 1.08984C2.10156 0.832031 1.62891 0.832031 1.37109 1.08984L0.296875 2.16406C0.0390625 2.42188 0.0390625 2.89453 0.296875 3.15234L4.9375 7.75L0.296875 12.3906C0.0390625 12.6484 0.0390625 13.1211 0.296875 13.3789L1.37109 14.4531C1.62891 14.7109 2.10156 14.7109 2.35938 14.4531L7 9.8125L11.5977 14.4531C11.8555 14.7109 12.3281 14.7109 12.5859 14.4531L13.6602 13.3789C13.918 13.1211 13.918 12.6484 13.6602 12.3906L9.01953 7.75Z" fill="#141414"/>
</svg>
