<?xml version="1.0" encoding="utf-8"?>
<svg version="1.1" id="Layer_1" xmlns="http://www.w3.org/2000/svg" xmlns:xlink="http://www.w3.org/1999/xlink" x="0px" y="0px"
	 viewBox="0 0 24 24" style="enable-background:new 0 0 24 24;" xml:space="preserve">
<style type="text/css">
	.st0{fill:#333333;}
</style>
<desc>Created with Sketch.</desc>
<path class="st0" d="M21,3.6c0-0.1-0.1-0.2-0.2-0.2c0,0,0,0,0,0l-0.2-0.2c-0.1-0.1-0.2-0.1-0.2-0.2c-1.6-1.2-3.8-1-5.2,0.4L2.3,16.3
	C2.1,16.5,2,16.7,2,17v4c0,0.6,0.4,1,1,1h4c0.3,0,0.5-0.1,0.7-0.3L20.6,8.8c0.8-0.8,1.2-1.8,1.2-2.8C21.8,5.2,21.5,4.3,21,3.6z
	 M6.6,20H4v-2.6L14.5,6.9l2.6,2.6L6.6,20z M19.2,7.4l-0.7,0.7l-2.6-2.6l0.7-0.7c0.7-0.7,1.9-0.8,2.7-0.1c0.3,0.4,0.5,0.8,0.5,1.3
	C19.8,6.6,19.6,7.1,19.2,7.4z"/>
</svg>
