<svg width="18" height="15" viewBox="0 0 18 15" fill="none" xmlns="http://www.w3.org/2000/svg">
<path d="M17.0312 2.34375C17.2656 2.34375 17.5 2.14844 17.5 1.875V0.625C17.5 0.390625 17.2656 0.15625 17.0312 0.15625H0.46875C0.195312 0.15625 0 0.390625 0 0.625V1.875C0 2.14844 0.195312 2.34375 0.46875 2.34375H17.0312ZM17.0312 8.59375C17.2656 8.59375 17.5 8.39844 17.5 8.125V6.875C17.5 6.64062 17.2656 6.40625 17.0312 6.40625H0.46875C0.195312 6.40625 0 6.64062 0 6.875V8.125C0 8.39844 0.195312 8.59375 0.46875 8.59375H17.0312ZM17.0312 14.8438C17.2656 14.8438 17.5 14.6484 17.5 14.375V13.125C17.5 12.8906 17.2656 12.6562 17.0312 12.6562H0.46875C0.195312 12.6562 0 12.8906 0 13.125V14.375C0 14.6484 0.195312 14.8438 0.46875 14.8438H17.0312Z" fill="#141414"/>
</svg>
