<svg width="24" height="24" viewBox="0 0 24 24" fill="none" xmlns="http://www.w3.org/2000/svg">
<path d="M12.7403 18.4041L15.305 15.8394C15.6476 15.4968 16.1867 15.4491 16.5841 15.7263L20.1349 18.2028C20.6454 18.5589 20.7101 19.2899 20.2699 19.7301L19.8836 20.1164C19.1734 20.8266 18.1542 21.1343 17.1981 20.8265C15.1331 20.1618 11.3762 18.6184 8.26127 15.5035C5.1463 12.3885 3.60292 8.63158 2.93822 6.56663C2.63044 5.61048 2.9381 4.59133 3.64837 3.88107L4.03463 3.49481C4.4748 3.05464 5.20585 3.11928 5.56195 3.62986L8.0384 7.1806C8.31561 7.57807 8.26795 8.1171 7.92529 8.45976L5.36064 11.0244" stroke="white" stroke-linecap="round"/>
</svg>
