<svg width="20" height="19" viewBox="0 0 20 19" fill="none" xmlns="http://www.w3.org/2000/svg">
<path d="M18.8594 8.45312H11.0469V0.640625C11.0469 0.445312 10.8516 0.25 10.6562 0.25H9.09375C8.84961 0.25 8.70312 0.445312 8.70312 0.640625V8.45312H0.890625C0.646484 8.45312 0.5 8.64844 0.5 8.84375V10.4062C0.5 10.6504 0.646484 10.7969 0.890625 10.7969H8.70312V18.6094C8.70312 18.8535 8.84961 19 9.09375 19H10.6562C10.8516 19 11.0469 18.8535 11.0469 18.6094V10.7969H18.8594C19.0547 10.7969 19.25 10.6504 19.25 10.4062V8.84375C19.25 8.64844 19.0547 8.45312 18.8594 8.45312Z" fill="#141414"/>
</svg>
