<svg width="25" height="25" viewBox="0 0 25 25" fill="none" xmlns="http://www.w3.org/2000/svg">
<path d="M24.1719 21.2656L19.4844 16.5781C19.25 16.3906 18.9688 16.25 18.6875 16.25H17.9375C19.2031 14.6094 20 12.5469 20 10.25C20 4.90625 15.5938 0.5 10.25 0.5C4.85938 0.5 0.5 4.90625 0.5 10.25C0.5 15.6406 4.85938 20 10.25 20C12.5 20 14.5625 19.25 16.25 17.9375V18.7344C16.25 19.0156 16.3438 19.2969 16.5781 19.5312L21.2188 24.1719C21.6875 24.6406 22.3906 24.6406 22.8125 24.1719L24.125 22.8594C24.5938 22.4375 24.5938 21.7344 24.1719 21.2656ZM10.25 16.25C6.92188 16.25 4.25 13.5781 4.25 10.25C4.25 6.96875 6.92188 4.25 10.25 4.25C13.5312 4.25 16.25 6.96875 16.25 10.25C16.25 13.5781 13.5312 16.25 10.25 16.25Z" fill="#088573"/>
</svg>
