<svg width="20" height="20" viewBox="0 0 20 20" fill="none" xmlns="http://www.w3.org/2000/svg">
<path d="M4.58398 16.25C4.58398 16.25 7.50065 15 8.33398 14.1667C9.16732 13.3333 6.66732 13.3333 6.66732 9.16667C6.66732 5 10.0007 5 10.0007 5C10.0007 5 13.334 5 13.334 9.16667C13.334 13.3333 10.834 13.3333 11.6673 14.1667C12.5007 15 15.4173 16.25 15.4173 16.25" stroke="#232323" stroke-linecap="round"/>
<path fill-rule="evenodd" clip-rule="evenodd" d="M9.99935 18.3327C14.6017 18.3327 18.3327 14.6017 18.3327 9.99935C18.3327 5.39698 14.6017 1.66602 9.99935 1.66602C5.39698 1.66602 1.66602 5.39698 1.66602 9.99935C1.66602 14.6017 5.39698 18.3327 9.99935 18.3327Z" stroke="#232323"/>
</svg>
